<svg width="52" height="43" viewBox="0 0 52 43" fill="none" xmlns="http://www.w3.org/2000/svg">
<path d="M8.00004 30.7727H7.73587L7.58699 30.9909L0.5 41.3798V0.5H0.513279H0.540071H0.567515H0.595607H0.624346H0.653728H0.683753H0.714416H0.745718H0.777654H0.810223H0.843422H0.877249H0.911703H0.946779H0.982478H1.01879H1.05573H1.09328H1.13144H1.17021H1.20959H1.24957H1.29016H1.33134H1.37313H1.41551H1.45849H1.50206H1.54621H1.59096H1.63629H1.6822H1.72869H1.77576H1.82341H1.87162H1.92042H1.96977H2.0197H2.07019H2.12124H2.17286H2.22502H2.27775H2.33103H2.38486H2.43923H2.49416H2.54962H2.60563H2.66218H2.71926H2.77688H2.83504H2.89372H2.95293H3.01266H3.07292H3.1337H3.195H3.25682H3.31915H3.38199H3.44534H3.5092H3.57356H3.63843H3.70379H3.76966H3.83602H3.90288H3.97022H4.03806H4.10638H4.17519H4.24448H4.31425H4.38449H4.45522H4.52641H4.59808H4.67022H4.74282H4.81588H4.88941H4.9634H5.03784H5.11274H5.1881H5.2639H5.34015H5.41685H5.49399H5.57157H5.64959H5.72805H5.80694H5.88626H5.96602H6.0462H6.12681H6.20784H6.28929H6.37116H6.45344H6.53614H6.61926H6.70278H6.78671H6.87104H6.95577H7.04091H7.12645H7.21238H7.2987H7.38541H7.47252H7.56001H7.64788H7.73614H7.82477H7.91379H8.00318H8.09294H8.18307H8.27357H8.36444H8.45567H8.54727H8.63922H8.73153H8.82419H8.91721H9.01057H9.10429H9.19835H9.29275H9.3875H9.48258H9.578H9.67375H9.76984H9.86626H9.963H10.0601H10.1575H10.2552H10.3532H10.4515H10.5502H10.6492H10.7485H10.848H10.9479H11.0481H11.1486H11.2494H11.3505H11.4519H11.5536H11.6555H11.7578H11.8603H11.9631H12.0662H12.1696H12.2732H12.3771H12.4813H12.5858H12.6905H12.7955H12.9007H13.0062H13.112H13.218H13.3243H13.4308H13.5376H13.6446H13.7518H13.8593H13.9671H14.0751H14.1833H14.2917H14.4004H14.5093H14.6184H14.7277H14.8373H14.9471H15.0571H15.1673H15.2777H15.3883H15.4991H15.6102H15.7214H15.8329H15.9445H16.0563H16.1684H16.2806H16.393H16.5056H16.6184H16.7313H16.8445H16.9578H17.0713H17.1849H17.2988H17.4128H17.5269H17.6413H17.7558H17.8704H17.9852H18.1002H18.2153H18.3305H18.446H18.5615H18.6772H18.7931H18.909H19.0251H19.1414H19.2578H19.3743H19.4909H19.6077H19.7245H19.8415H19.9587H20.0759H20.1932H20.3107H20.4283H20.5459H20.6637H20.7816H20.8996H21.0177H21.1358H21.2541H21.3725H21.4909H21.6094H21.728H21.8467H21.9655H22.0844H22.2033H22.3223H22.4413H22.5605H22.6797H22.7989H22.9183H23.0376H23.1571H23.2766H23.3961H23.5157H23.6354H23.755H23.8748H23.9945H24.1143H24.2342H24.3541H24.474H24.5939H24.7139H24.8339H24.9539H25.0739H25.1939H25.314H25.4341H25.5542H25.6743H25.7944H25.9145H26.0346H26.1547H26.2748H26.3949H26.515H26.6351H26.7551H26.8752H26.9952H27.1152H27.2352H27.3552H27.4752H27.5951H27.715H27.8348H27.9546H28.0744H28.1942H28.3139H28.4335H28.5532H28.6727H28.7922H28.9117H29.0311H29.1505H29.2697H29.389H29.5081H29.6272H29.7463H29.8652H29.9841H30.1029H30.2216H30.3403H30.4588H30.5773H30.6957H30.814H30.9322H31.0504H31.1684H31.2863H31.4041H31.5218H31.6395H31.757H31.8744H31.9916H32.1088H32.2259H32.3428H32.4596H32.5763H32.6928H32.8093H32.9256H33.0418H33.1578H33.2737H33.3894H33.5051H33.6205H33.7359H33.851H33.9661H34.0809H34.1956H34.3102H34.4246H34.5388H34.6529H34.7668H34.8806H34.9941H35.1075H35.2207H35.3338H35.4466H35.5593H35.6718H35.7841H35.8962H36.0081H36.1198H36.2314H36.3427H36.4538H36.5647H36.6754H36.786H36.8963H37.0063H37.1162H37.2259H37.3353H37.4445H37.5535H37.6623H37.7708H37.8791H37.9872H38.095H38.2026H38.31H38.4171H38.524H38.6306H38.737H38.8431H38.949H39.0546H39.16H39.265H39.3699H39.4745H39.5788H39.6828H39.7866H39.89H39.9933H40.0962H40.1988H40.3012H40.4033H40.5051H40.6066H40.7078H40.8087H40.9093H41.0097H41.1097H41.2094H41.3088H41.4079H41.5067H41.6052H41.7034H41.8012H41.8987H41.9959H42.0928H42.1894H42.2856H42.3815H42.4771H42.5723H42.6672H42.7617H42.8559H42.9498H43.0433H43.1365H43.2293H43.3218H43.4139H43.5056H43.597H43.688H43.7787H43.869H43.9589H44.0484H44.1376H44.2264H44.3148H44.4029H44.4905H44.5778H44.6647H44.7512H44.8373H44.923H45.0083H45.0932H45.1777H45.2618H45.3455H45.4288H45.5117H45.5941H45.6762H45.7578H45.839H45.9198H46.0002C49.0487 0.5 51.5 2.91208 51.5 5.86375V25.4092C51.5 28.3605 49.0488 30.7727 46.0002 30.7727H45.9295H45.8584H45.7871H45.7155H45.6435H45.5712H45.4987H45.4258H45.3526H45.2791H45.2053H45.1312H45.0568H44.9821H44.9072H44.8319H44.7563H44.6805H44.6044H44.528H44.4513H44.3743H44.297H44.2195H44.1417H44.0636H43.9852H43.9066H43.8277H43.7485H43.6691H43.5894H43.5094H43.4292H43.3487H43.268H43.187H43.1058H43.0243H42.9426H42.8606H42.7783H42.6959H42.6131H42.5302H42.447H42.3636H42.2799H42.196H42.1119H42.0275H41.9429H41.8581H41.7731H41.6878H41.6023H41.5166H41.4307H41.3446H41.2582H41.1717H41.0849H40.9979H40.9107H40.8234H40.7358H40.648H40.56H40.4718H40.3834H40.2948H40.2061H40.1171H40.028H39.9386H39.8491H39.7594H39.6695H39.5795H39.4892H39.3988H39.3082H39.2175H39.1265H39.0354H38.9442H38.8527H38.7611H38.6694H38.5774H38.4854H38.3931H38.3007H38.2082H38.1155H38.0227H37.9297H37.8365H37.7433H37.6498H37.5563H37.4626H37.3687H37.2748H37.1807H37.0864H36.9921H36.8976H36.8029H36.7082H36.6133H36.5183H36.4232H36.328H36.2327H36.1372H36.0416H35.946H35.8502H35.7543H35.6583H35.5622H35.466H35.3697H35.2733H35.1768H35.0802H34.9836H34.8868H34.7899H34.693H34.596H34.4989H34.4017H34.3044H34.207H34.1096H34.0121H33.9145H33.8169H33.7192H33.6214H33.5235H33.4256H33.3277H33.2296H33.1315H33.0334H32.9352H32.8369H32.7386H32.6403H32.5419H32.4434H32.3449H32.2464H32.1478H32.0492H31.9505H31.8519H31.7531H31.6544H31.5556H31.4568H31.358H31.2591H31.1602H31.0613H30.9624H30.8634H30.7645H30.6655H30.5665H30.4675H30.3685H30.2695H30.1705H30.0715H29.9725H29.8735H29.7745H29.6755H29.5765H29.4775H29.3785H29.2795H29.1805H29.0816H28.9827H28.8837H28.7848H28.686H28.5871H28.4883H28.3895H28.2907H28.192H28.0933H27.9946H27.896H27.7974H27.6989H27.6004H27.5019H27.4035H27.3051H27.2068H27.1085H27.0103H26.9121H26.814H26.7159H26.6179H26.52H26.4221H26.3243H26.2265H26.1289H26.0313H25.9337H25.8363H25.7389H25.6416H25.5443H25.4472H25.3501H25.2531H25.1562H25.0594H24.9627H24.8661H24.7696H24.6731H24.5768H24.4805H24.3844H24.2884H24.1924H24.0966H24.0009H23.9053H23.8097H23.7144H23.6191H23.5239H23.4289H23.334H23.2392H23.1445H23.0499H22.9555H22.8612H22.7671H22.673H22.5791H22.4854H22.3917H22.2983H22.2049H22.1117H22.0187H21.9258H21.833H21.7404H21.6479H21.5556H21.4635H21.3715H21.2797H21.188H21.0965H21.0051H20.914H20.8229H20.7321H20.6414H20.5509H20.4606H20.3705H20.2805H20.1907H20.1011H20.0117H19.9225H19.8335H19.7446H19.6559H19.5675H19.4792H19.3911H19.3032H19.2156H19.1281H19.0408H18.9538H18.8669H18.7802H18.6938H18.6076H18.5216H18.4358H18.3502H18.2648H18.1797H18.0948H18.0101H17.9256H17.8414H17.7574H17.6736H17.5901H17.5068H17.4237H17.3409H17.2583H17.176H17.0939H17.012H16.9304H16.8491H16.768H16.6872H16.6066H16.5262H16.4462H16.3663H16.2868H16.2075H16.1285H16.0497H15.9713H15.8931H15.8151H15.7375H15.6601H15.583H15.5061H15.4296H15.3533H15.2774H15.2017H15.1263H15.0512H14.9764H14.9019H14.8276H14.7537H14.6801H14.6068H14.5338H14.461H14.3886H14.3165H14.2448H14.1733H14.1021H14.0313H13.9608H13.8906H13.8207H13.7511H13.6819H13.613H13.5444H13.4761H13.4082H13.3406H13.2734H13.2065H13.1399H13.0737H13.0078H12.9422H12.8771H12.8122H12.7477H12.6836H12.6198H12.5563H12.4932H12.4305H12.3682H12.3062H12.2445H12.1833H12.1224H12.0618H12.0017H11.9419H11.8825H11.8234H11.7648H11.7065H11.6486H11.5911H11.534H11.4772H11.4209H11.3649H11.3094H11.2542H11.1994H11.145H11.0911H11.0375H10.9843H10.9316H10.8792H10.8273H10.7757H10.7246H10.6739H10.6236H10.5737H10.5242H10.4752H10.4266H10.3784H10.3306H10.2833H10.2364H10.1899H10.1439H10.0983H10.0531H10.0084H9.96409H9.92024H9.87684H9.83389H9.79138H9.74933H9.70772H9.66657H9.62588H9.58564H9.54586H9.50654H9.46768H9.42929H9.39136H9.3539H9.31691H9.28039H9.24434H9.20877H9.17367H9.13906H9.10492H9.07127H9.03809H9.00541H8.97321H8.9415H8.91028H8.87955H8.84932H8.81959H8.79035H8.76161H8.73337H8.70564H8.67841H8.65169H8.62548H8.59978H8.57458H8.54991H8.52575H8.5021H8.47898H8.45638H8.4343H8.41274H8.39172H8.37121H8.35124H8.33181H8.3129H8.29453H8.2767H8.2594H8.24265H8.22644H8.21077H8.19565H8.18108H8.16706H8.15359H8.14067H8.12831H8.1165H8.10525H8.09457H8.08444H8.07488H8.06588H8.05746H8.0496H8.04231H8.03559H8.02945H8.02389H8.0189H8.01449H8.01067H8.00743H8.00477H8.0027H8.00123H8.00034C8.00014 30.7727 8.00004 30.7727 8.00004 31.2727V30.7727Z" stroke="#8ECAE6"/>
</svg>
