<svg width="111" height="35" viewBox="0 0 111 35" fill="none" xmlns="http://www.w3.org/2000/svg">
<path fill-rule="evenodd" clip-rule="evenodd" d="M54.8831 5.68585C55.9216 4.64744 57.6053 4.64744 58.6438 5.68585C59.6822 6.72434 59.6822 8.40804 58.6438 9.44653L52.3125 15.7778C50.4947 13.3417 50.6922 9.87688 52.9049 7.66416L54.8831 5.68585Z" fill="#4F9E91"/>
<path fill-rule="evenodd" clip-rule="evenodd" d="M63.9341 19.9703C64.9727 21.0087 64.9727 22.6925 63.9341 23.7309C62.8962 24.7694 61.2122 24.7694 60.1737 23.7309L53.8425 17.3997C56.2786 15.5819 59.7434 15.7793 61.9561 17.992L63.9341 19.9703Z" fill="#EBE1C5"/>
<path fill-rule="evenodd" clip-rule="evenodd" d="M49.6499 29.0215C48.6114 30.06 46.9277 30.06 45.8893 29.0215C44.8508 27.983 44.8508 26.2993 45.8893 25.2608L52.2205 18.9296C54.0383 21.3658 53.8409 24.8306 51.6281 27.0432L49.6499 29.0215Z" fill="#EBCC6E"/>
<path fill-rule="evenodd" clip-rule="evenodd" d="M40.5988 14.737C39.5603 13.6985 39.5603 12.0149 40.5988 10.9764C41.6372 9.93789 43.3209 9.93789 44.3594 10.9764L50.6907 17.3077C48.2545 19.1254 44.7897 18.928 42.577 16.7153L40.5988 14.737Z" fill="#ED834E"/>
<path fill-rule="evenodd" clip-rule="evenodd" d="M53.4683 28.2461C54.9996 26.5435 55.7113 24.365 55.6033 22.2201L58.6439 25.2607C58.6515 25.2683 58.6591 25.2758 58.6667 25.2834V27.4542C58.6667 28.9228 57.4762 30.1134 56.0076 30.1134C54.8147 30.1134 53.8053 29.328 53.4683 28.2461Z" fill="#ED834E"/>
<path fill-rule="evenodd" clip-rule="evenodd" d="M41.3741 18.5553C43.0765 20.0866 45.255 20.7983 47.4 20.6903L44.3594 23.731C44.3518 23.7385 44.3442 23.7462 44.3367 23.7537H42.1659C40.6973 23.7538 39.5067 22.5632 39.5067 21.0946C39.5067 19.9018 40.2922 18.8923 41.3741 18.5553Z" fill="#4F9E91"/>
<path fill-rule="evenodd" clip-rule="evenodd" d="M63.1588 16.1521C61.4565 14.6208 59.278 13.9091 57.1331 14.017L60.1736 10.9764C60.1813 10.9689 60.1888 10.9612 60.1963 10.9536H62.3672C63.836 10.9536 65.0266 12.1442 65.0266 13.6128C65.0266 14.8057 64.2409 15.8151 63.1588 16.1521Z" fill="#EBCC6E"/>
<path fill-rule="evenodd" clip-rule="evenodd" d="M51.0648 6.46119C49.5335 8.16366 48.8219 10.3422 48.9298 12.4872L45.8892 9.44655C45.8816 9.43899 45.874 9.43143 45.8664 9.42387V7.25304C45.8664 5.78443 47.0569 4.59381 48.5255 4.59381C49.7184 4.59381 50.7278 5.3793 51.0648 6.46119Z" fill="#EBE1C5"/>
<path fill-rule="evenodd" clip-rule="evenodd" d="M48.5257 2.43036C45.8622 2.43036 43.703 4.58958 43.703 7.25307V8.19106C42.1006 7.77239 40.3247 8.19083 39.069 9.44656C37.1856 11.33 37.1856 14.3835 39.069 16.2669L39.7322 16.9301C38.3031 17.7672 37.3433 19.3188 37.3433 21.0946C37.3433 23.7581 39.5025 25.9173 42.166 25.9173H43.104C42.6853 27.5197 43.1037 29.2956 44.3595 30.5512C46.2428 32.4346 49.2964 32.4346 51.1798 30.5512L53.158 28.573C54.9031 26.8279 55.7182 24.5049 55.6032 22.22L58.6439 25.2607C60.5273 27.1441 63.5809 27.1441 65.4644 25.2607C67.3479 23.3773 67.3479 20.3237 65.4644 18.4404L64.8014 17.7772C66.2299 16.9402 67.19 15.3886 67.19 13.6128C67.19 10.9493 65.0304 8.79007 62.3672 8.79007H61.4292C61.848 7.1876 61.4294 5.41173 60.1737 4.15601C58.2904 2.27262 55.2368 2.27262 53.3534 4.15601L51.3751 6.13429C49.63 7.87939 48.815 10.2023 48.93 12.4872L45.8894 9.44656C45.8817 9.439 45.8742 9.43144 45.8665 9.42388V7.25307C45.8665 5.78446 47.0571 4.59392 48.5257 4.59392C49.7185 4.59392 50.7279 5.37933 51.065 6.46122C51.1649 6.35018 51.2682 6.24115 51.3751 6.13429L52.6901 4.81923C51.8531 3.39013 50.3015 2.43036 48.5257 2.43036ZM60.1964 10.9536C60.1888 10.9612 60.1813 10.9688 60.1737 10.9764L57.1331 14.0169C59.2781 13.909 61.4566 14.6207 63.1589 16.1521C64.2409 15.815 65.0267 14.8056 65.0267 13.6128C65.0267 12.1442 63.8361 10.9536 62.3672 10.9536H60.1964ZM44.3367 23.7537C44.3443 23.7461 44.3518 23.7385 44.3595 23.7309L47.4 20.6903C45.2551 20.7983 43.0766 20.0865 41.3742 18.5553C40.2923 18.8923 39.5068 19.9017 39.5068 21.0946C39.5068 22.5632 40.6974 23.7537 42.166 23.7537H44.3367ZM41.2913 18.4797C41.2087 18.4035 41.1274 18.3253 41.0473 18.2451V18.2452C41.1274 18.3254 41.2087 18.4035 41.2913 18.4797ZM56.0076 32.277C54.2317 32.277 52.6801 31.3172 51.843 29.8881L53.158 28.573C53.265 28.4662 53.3683 28.3571 53.4682 28.2461C53.8052 29.328 54.8146 30.1135 56.0076 30.1135C57.4762 30.1135 58.6667 28.9229 58.6667 27.4543V25.2835C59.2899 25.8985 60.0389 26.3095 60.8303 26.5162V27.4543C60.8303 30.1178 58.671 32.277 56.0076 32.277ZM58.6439 5.68584C57.6054 4.64742 55.9217 4.64742 54.8832 5.68584L52.905 7.66411C50.6923 9.87683 50.4948 13.3416 52.3126 15.7778L58.6439 9.44648C59.6824 8.40799 59.6824 6.72433 58.6439 5.68584ZM63.9341 23.7308C64.9728 22.6924 64.9728 21.0087 63.9341 19.9702L61.9561 17.9919C59.7434 15.7793 56.2786 15.5818 53.8424 17.3996L60.1737 23.7308C61.2122 24.7693 62.8963 24.7693 63.9341 23.7308ZM49.6499 29.0214C48.6114 30.0599 46.9278 30.0599 45.8893 29.0214C44.8509 27.9829 44.8509 26.2992 45.8893 25.2607L52.2206 18.9295C54.0383 21.3656 53.8409 24.8305 51.6282 27.0431L49.6499 29.0214ZM40.5988 10.9764C39.5604 12.0149 39.5604 13.6985 40.5988 14.737L42.5771 16.7153C44.7898 18.928 48.2546 19.1254 50.6907 17.3077L44.3595 10.9764C43.321 9.93796 41.6373 9.93796 40.5988 10.9764Z" fill="#3D3A2C"/>
<path d="M1.64693 12.1828H4.012V19.532H8.07406V21.5229H1.64693V12.1828Z" fill="#3D3A2C"/>
<path d="M12.3683 21.7234C11.5754 21.7234 10.8806 21.5808 10.2837 21.2958C9.68687 21.0018 9.22367 20.6009 8.89405 20.0932C8.5734 19.5765 8.41304 18.9842 8.41304 18.316C8.41304 17.6479 8.5734 17.06 8.89405 16.5523C9.22367 16.0356 9.68687 15.6347 10.2837 15.3497C10.8806 15.0557 11.5754 14.9087 12.3683 14.9087C13.1611 14.9087 13.8559 15.0557 14.4527 15.3497C15.0496 15.6347 15.5083 16.0356 15.829 16.5523C16.1586 17.06 16.3234 17.6479 16.3234 18.316C16.3234 18.9842 16.1586 19.5765 15.829 20.0932C15.5083 20.6009 15.0496 21.0018 14.4527 21.2958C13.8559 21.5808 13.1611 21.7234 12.3683 21.7234ZM12.3683 19.8927C12.8404 19.8927 13.2145 19.7547 13.4906 19.4786C13.7757 19.1935 13.9182 18.806 13.9182 18.316C13.9182 17.8261 13.7757 17.443 13.4906 17.1669C13.2145 16.8818 12.8404 16.7393 12.3683 16.7393C11.8961 16.7393 11.5175 16.8818 11.2325 17.1669C10.9563 17.443 10.8182 17.8261 10.8182 18.316C10.8182 18.806 10.9563 19.1935 11.2325 19.4786C11.5175 19.7547 11.8961 19.8927 12.3683 19.8927Z" fill="#3D3A2C"/>
<path d="M20.7409 24.5962C20.3133 24.5962 19.8812 24.5561 19.4448 24.476C19.0172 24.3958 18.6474 24.2889 18.3357 24.1553V22.5251C19.0394 22.8279 19.8411 22.9794 20.7409 22.9794C21.3912 22.9794 21.8588 22.8458 22.1439 22.5785C22.4379 22.3113 22.5848 21.9194 22.5848 21.4027V21.0152C22.3265 21.2379 22.0058 21.4116 21.6228 21.5363C21.2486 21.661 20.8477 21.7234 20.4202 21.7234C19.7432 21.7234 19.1463 21.5808 18.6296 21.2958C18.113 21.0107 17.7077 20.6098 17.4137 20.0932C17.1286 19.5765 16.9861 18.9842 16.9861 18.316C16.9861 17.639 17.1286 17.0422 17.4137 16.5255C17.6988 16.0088 18.0996 15.6124 18.6163 15.3363C19.1329 15.0512 19.7254 14.9087 20.3935 14.9087C21.311 14.9087 22.0681 15.1893 22.665 15.7505V15.1091H24.9366V21.082C24.9366 22.1955 24.5936 23.0596 23.9077 23.6743C23.2307 24.2889 22.1751 24.5962 20.7409 24.5962ZM21.0081 19.9061C21.3733 19.9061 21.6985 19.8126 21.9835 19.6255C22.2686 19.4384 22.469 19.189 22.5848 18.8772V17.7548C22.4601 17.443 22.2552 17.198 21.9702 17.0199C21.6851 16.8329 21.3644 16.7393 21.0081 16.7393C20.5271 16.7393 20.1396 16.8818 19.8456 17.1669C19.5516 17.443 19.4046 17.8216 19.4046 18.3027C19.4046 18.7926 19.5516 19.1845 19.8456 19.4786C20.1396 19.7636 20.5271 19.9061 21.0081 19.9061Z" fill="#3D3A2C"/>
<path d="M29.4884 21.7234C28.6955 21.7234 28.0007 21.5808 27.4039 21.2958C26.807 21.0018 26.3438 20.6009 26.0142 20.0932C25.6935 19.5765 25.5331 18.9842 25.5331 18.316C25.5331 17.6479 25.6935 17.06 26.0142 16.5523C26.3438 16.0356 26.807 15.6347 27.4039 15.3497C28.0007 15.0557 28.6955 14.9087 29.4884 14.9087C30.2812 14.9087 30.976 15.0557 31.5728 15.3497C32.1697 15.6347 32.6284 16.0356 32.9492 16.5523C33.2787 17.06 33.4436 17.6479 33.4436 18.316C33.4436 18.9842 33.2787 19.5765 32.9492 20.0932C32.6284 20.6009 32.1697 21.0018 31.5728 21.2958C30.976 21.5808 30.2812 21.7234 29.4884 21.7234ZM29.4884 19.8927C29.9605 19.8927 30.3346 19.7547 30.6108 19.4786C30.8958 19.1935 31.0384 18.806 31.0384 18.316C31.0384 17.8261 30.8958 17.443 30.6108 17.1669C30.3346 16.8818 29.9605 16.7393 29.4884 16.7393C29.0163 16.7393 28.6376 16.8818 28.3526 17.1669C28.0764 17.443 27.9383 17.8261 27.9383 18.316C27.9383 18.806 28.0764 19.1935 28.3526 19.4786C28.6376 19.7547 29.0163 19.8927 29.4884 19.8927Z" fill="#3D3A2C"/>
<path d="M71.1633 12.1828H73.5287V21.5229H71.1633V12.1828Z" fill="#3D3A2C"/>
<path d="M74.7261 15.1091H76.9979V15.7505C77.5943 15.1893 78.3516 14.9087 79.269 14.9087C79.9372 14.9087 80.5299 15.0512 81.0462 15.3363C81.5633 15.6124 81.9636 16.0088 82.2487 16.5255C82.5338 17.0333 82.6767 17.6257 82.6767 18.3027C82.6767 18.9708 82.5338 19.5676 82.2487 20.0932C81.9636 20.6098 81.5633 21.0107 81.0462 21.2958C80.5388 21.5808 79.9462 21.7234 79.269 21.7234C78.8417 21.7234 78.4316 21.6566 78.0403 21.5229C77.6572 21.3982 77.3361 21.2245 77.078 21.0018V24.4492H74.7261V15.1091ZM78.6546 19.8927C79.1358 19.8927 79.5234 19.7503 79.8167 19.4652C80.1108 19.1801 80.2582 18.7926 80.2582 18.3027C80.2582 17.8127 80.1108 17.4297 79.8167 17.1535C79.5234 16.8685 79.1358 16.7259 78.6546 16.7259C78.2984 16.7259 77.9774 16.8195 77.6923 17.0065C77.4072 17.1847 77.2029 17.4297 77.078 17.7415V18.8772C77.2029 19.189 77.4072 19.4384 77.6923 19.6255C77.9774 19.8037 78.2984 19.8927 78.6546 19.8927Z" fill="#3D3A2C"/>
<path d="M86.1825 21.7234C85.6662 21.7234 85.1274 21.67 84.5662 21.563C84.005 21.4651 83.559 21.3225 83.2297 21.1354V19.4117C83.5949 19.6255 84.0312 19.8037 84.5393 19.9462C85.0556 20.0798 85.5278 20.1466 85.9558 20.1466C86.2671 20.1466 86.4946 20.1243 86.6367 20.0798C86.7797 20.0353 86.8508 19.9462 86.8508 19.8126C86.8508 19.7057 86.8021 19.621 86.7041 19.5587C86.615 19.4875 86.4452 19.4161 86.196 19.3449C85.9558 19.2648 85.6752 19.1801 85.3542 19.091C84.8109 18.9307 84.3836 18.7659 84.0716 18.5966C83.7595 18.4273 83.5283 18.2136 83.3764 17.9552C83.2252 17.6969 83.1497 17.3718 83.1497 16.9798C83.1497 16.285 83.4213 15.7683 83.9646 15.4298C84.5168 15.0824 85.2696 14.9087 86.2229 14.9087C86.6861 14.9087 87.1718 14.9577 87.6791 15.0557C88.1962 15.1537 88.5831 15.2828 88.842 15.4432V17.1402C88.5748 16.962 88.2179 16.815 87.7727 16.6992C87.3364 16.5834 86.9263 16.5255 86.5432 16.5255C86.2409 16.5255 86.0044 16.5567 85.8353 16.619C85.6662 16.6725 85.5816 16.7705 85.5816 16.913C85.5816 17.0467 85.6662 17.1491 85.8353 17.2203C86.0044 17.2916 86.3075 17.3807 86.7437 17.4876C87.0288 17.5589 87.1493 17.59 87.1044 17.5811C87.6746 17.7325 88.1154 17.9018 88.4274 18.0889C88.7395 18.276 88.9572 18.4987 89.0822 18.757C89.2161 19.0064 89.2827 19.3271 89.2827 19.7191C89.2827 20.3337 89.0156 20.8236 88.4813 21.1889C87.9552 21.5452 87.189 21.7234 86.1825 21.7234Z" fill="#3D3A2C"/>
<path d="M92.7937 21.7234C91.9122 21.7234 91.2485 21.4784 90.8033 20.9885C90.367 20.4985 90.1485 19.8527 90.1485 19.051V15.1091H92.5004V18.7837C92.5004 19.5231 92.8341 19.8928 93.5024 19.8928C93.8054 19.8928 94.0816 19.8215 94.3307 19.679C94.5799 19.5364 94.785 19.3271 94.9451 19.051V15.1091H97.297V21.523H95.0259V20.8282C94.7498 21.1221 94.4153 21.3448 94.0232 21.4962C93.6318 21.6477 93.2218 21.7234 92.7937 21.7234Z" fill="#3D3A2C"/>
<path d="M98.501 15.1091H100.679V15.804C100.946 15.5189 101.254 15.3007 101.601 15.1492C101.948 14.9888 102.318 14.9087 102.71 14.9087C103.191 14.9087 103.574 14.9799 103.86 15.1225C104.154 15.265 104.389 15.4788 104.567 15.7638C104.835 15.4966 105.16 15.2873 105.543 15.1359C105.926 14.9844 106.314 14.9087 106.705 14.9087C107.552 14.9087 108.153 15.127 108.509 15.5635C108.866 15.991 109.044 16.6101 109.044 17.4207V21.5229H106.799V17.7548C106.799 17.3985 106.732 17.1402 106.598 16.9798C106.465 16.8195 106.242 16.7393 105.931 16.7393C105.53 16.7393 105.204 16.8818 104.955 17.1669C104.964 17.3183 104.969 17.55 104.969 17.8617V21.5229H102.724V17.6613C102.724 17.3317 102.666 17.0956 102.55 16.9531C102.434 16.8106 102.229 16.7393 101.936 16.7393C101.481 16.7393 101.089 16.9932 100.759 17.501V21.5229H98.501V15.1091Z" fill="#3D3A2C"/>
</svg>
