<svg width="122" height="30" viewBox="0 0 122 30" fill="none" xmlns="http://www.w3.org/2000/svg">
<path d="M37.2173 20.1932H45.7946V17.6097H40.2658V7.87842H37.2173V20.1932Z" fill="#8ECAE6"/>
<path d="M50.8763 18.471C49.6534 18.471 49.0162 17.4032 49.0162 15.8014C49.0162 14.1996 49.6534 13.1145 50.8763 13.1145C52.0992 13.1145 52.7537 14.1996 52.7537 15.8014C52.7537 17.4032 52.0992 18.471 50.8763 18.471ZM50.8935 20.4689C53.7354 20.4689 55.5955 18.4538 55.5955 15.8014C55.5955 13.1489 53.7354 11.1338 50.8935 11.1338C48.0689 11.1338 46.1743 13.1489 46.1743 15.8014C46.1743 18.4538 48.0689 20.4689 50.8935 20.4689Z" fill="#8ECAE6"/>
<path d="M60.5147 23.2421C61.8236 23.2421 62.9776 22.9493 63.7527 22.2603C64.4588 21.6231 64.9239 20.6585 64.9239 19.3323V11.3751H62.237V12.3223H62.2026C61.6859 11.5817 60.8936 11.1167 59.7224 11.1167C57.535 11.1167 56.0193 12.9424 56.0193 15.5259C56.0193 18.23 57.8622 19.7112 59.8429 19.7112C60.9108 19.7112 61.5825 19.2807 62.0992 18.6951H62.1681V19.5735C62.1681 20.6413 61.6686 21.2614 60.4802 21.2614C59.5501 21.2614 59.0851 20.8652 58.9301 20.4002H56.2088C56.4844 22.2431 58.0861 23.2421 60.5147 23.2421ZM60.4974 17.6272C59.4468 17.6272 58.7579 16.766 58.7579 15.4398C58.7579 14.0964 59.4468 13.2352 60.4974 13.2352C61.6686 13.2352 62.2887 14.2342 62.2887 15.4226C62.2887 16.6627 61.7203 17.6272 60.4974 17.6272Z" fill="#8ECAE6"/>
<path d="M70.4485 18.471C69.2257 18.471 68.5884 17.4032 68.5884 15.8014C68.5884 14.1996 69.2257 13.1145 70.4485 13.1145C71.6714 13.1145 72.3259 14.1996 72.3259 15.8014C72.3259 17.4032 71.6714 18.471 70.4485 18.471ZM70.4658 20.4689C73.3077 20.4689 75.1678 18.4538 75.1678 15.8014C75.1678 13.1489 73.3077 11.1338 70.4658 11.1338C67.6411 11.1338 65.7465 13.1489 65.7465 15.8014C65.7465 18.4538 67.6411 20.4689 70.4658 20.4689Z" fill="#8ECAE6"/>
<path d="M75.9873 20.1932H78.7948V11.3748H75.9873V20.1932ZM75.9873 10.1519H78.7948V7.87842H75.9873V10.1519Z" fill="#8ECAE6"/>
<path d="M80.0133 23.1043H82.8208V19.2807H82.8552C83.4064 20.0213 84.2159 20.4691 85.3526 20.4691C87.6606 20.4691 89.1935 18.6434 89.1935 15.7843C89.1935 13.1319 87.7639 11.1167 85.4215 11.1167C84.2159 11.1167 83.3547 11.6506 82.7519 12.4429H82.7002V11.3751H80.0133V23.1043ZM84.6292 18.2989C83.4236 18.2989 82.7347 17.3172 82.7347 15.8876C82.7347 14.4581 83.3547 13.373 84.5776 13.373C85.7832 13.373 86.3516 14.3719 86.3516 15.8876C86.3516 17.3861 85.6971 18.2989 84.6292 18.2989Z" fill="#8ECAE6"/>
<path d="M93.7642 20.4691C96.0721 20.4691 97.7773 19.4701 97.7773 17.5411C97.7773 15.2848 95.9516 14.8887 94.4015 14.6303C93.2819 14.4236 92.283 14.3375 92.283 13.7175C92.283 13.1663 92.8169 12.9079 93.5058 12.9079C94.2809 12.9079 94.8148 13.1491 94.9182 13.9414H97.5017C97.3639 12.2018 96.0205 11.1167 93.5231 11.1167C91.439 11.1167 89.7167 12.0812 89.7167 13.9414C89.7167 16.0082 91.3529 16.4215 92.8858 16.6799C94.057 16.8866 95.1248 16.9727 95.1248 17.765C95.1248 18.3334 94.5909 18.6434 93.747 18.6434C92.8169 18.6434 92.2313 18.2128 92.1279 17.3344H89.4755C89.5616 19.2807 91.1807 20.4691 93.7642 20.4691Z" fill="#8ECAE6"/>
<path d="M101.591 20.4518C102.814 20.4518 103.589 19.9695 104.226 19.1084H104.278V20.1934H106.965V11.375H104.157V16.3009C104.157 17.3516 103.572 18.075 102.607 18.075C101.711 18.075 101.281 17.541 101.281 16.5765V11.375H98.4906V17.1621C98.4906 19.1256 99.5585 20.4518 101.591 20.4518Z" fill="#8ECAE6"/>
<path d="M108.185 20.1935H110.993V15.2503C110.993 14.1997 111.509 13.4591 112.388 13.4591C113.232 13.4591 113.628 14.0103 113.628 14.9575V20.1935H116.435V15.2503C116.435 14.1997 116.935 13.4591 117.83 13.4591C118.674 13.4591 119.071 14.0103 119.071 14.9575V20.1935H121.878V14.4581C121.878 12.4774 120.879 11.1167 118.881 11.1167C117.744 11.1167 116.797 11.599 116.108 12.6668H116.074C115.626 11.7195 114.747 11.1167 113.593 11.1167C112.319 11.1167 111.475 11.7195 110.924 12.6324H110.872V11.3751H108.185V20.1935Z" fill="#8ECAE6"/>
<path fill-rule="evenodd" clip-rule="evenodd" d="M14.8439 28.805C22.7708 28.805 29.1968 22.379 29.1968 14.452C29.1968 6.52516 22.7708 0.0991211 14.8439 0.0991211C6.91695 0.0991211 0.490936 6.52516 0.490936 14.452C0.490936 22.379 6.91695 28.805 14.8439 28.805ZM19.3215 6.78532C19.5395 6.01113 18.7882 5.55333 18.102 6.04217L8.52364 12.8658C7.77952 13.3959 7.89656 14.452 8.69947 14.452H11.2217V14.4325H16.1375L12.132 15.8458L10.3663 22.1188C10.1483 22.893 10.8996 23.3508 11.5858 22.8619L21.1641 16.0384C21.9083 15.5083 21.7911 14.452 20.9883 14.452H17.1634L19.3215 6.78532Z" fill="#F5841F"/>
</svg>
