<svg width="16" height="16" viewBox="0 0 16 16" fill="none" xmlns="http://www.w3.org/2000/svg">
<path fill-rule="evenodd" clip-rule="evenodd" d="M3.39986 1.33385C3.92044 0.812833 4.76486 0.812597 5.28573 1.33332L7.74756 3.79444C8.26823 4.31497 8.26847 5.15899 7.74808 5.67981L6.87551 6.55311L9.71171 9.38886L10.5837 8.51612C11.1043 7.99511 11.9487 7.99488 12.4696 8.5156L14.6667 10.7121C15.1874 11.2326 15.1876 12.0766 14.6672 12.5974L13.2138 14.0521C12.3616 14.905 11.0497 15.0953 9.99028 14.5197C6.392 12.565 3.43619 9.60956 1.48052 6.01185C0.904937 4.95298 1.09428 3.64133 1.94625 2.78866L3.39986 1.33385ZM6.80488 4.73739L4.34306 2.27627L2.88945 3.73108C2.45502 4.16587 2.35835 4.83491 2.65197 5.37507C4.48472 8.74665 7.25475 11.5163 10.6268 13.3481C11.167 13.6416 11.836 13.5446 12.2706 13.1096L13.724 11.655L11.5269 9.45854L9.71217 11.2748L4.9902 6.55357L6.80488 4.73739Z" fill="#F5841F"/>
</svg>
