<svg width="101" height="31" viewBox="0 0 101 31" fill="none" xmlns="http://www.w3.org/2000/svg">
<path d="M18.0985 9.19339H19.6136V19.7388H24.1591V21.254H18.0985V9.19339ZM28.8788 9.19339C29.7778 9.19339 30.6566 9.45999 31.4041 9.95946C32.1516 10.4589 32.7343 11.1688 33.0783 11.9994C33.4223 12.83 33.5123 13.7439 33.3369 14.6256C33.1615 15.5073 32.7286 16.3173 32.0929 16.9529C31.4572 17.5887 30.6473 18.0216 29.7655 18.197C28.8839 18.3723 27.9699 18.2823 27.1393 17.9383C26.3087 17.5942 25.5989 17.0117 25.0994 16.2642C24.5999 15.5167 24.3333 14.6379 24.3333 13.7388C24.3333 13.142 24.4509 12.5508 24.6793 11.9994C24.9077 11.4479 25.2426 10.9468 25.6647 10.5248C26.0868 10.1026 26.5878 9.76779 27.1393 9.53938C27.6908 9.31097 28.2819 9.19339 28.8788 9.19339ZM28.8788 16.7692C29.4781 16.7692 30.064 16.5914 30.5624 16.2585C31.0607 15.9254 31.4491 15.4522 31.6784 14.8985C31.9078 14.3448 31.9678 13.7355 31.8508 13.1476C31.734 12.5598 31.4453 12.0199 31.0215 11.5961C30.5977 11.1723 30.0578 10.8837 29.47 10.7668C28.8821 10.6498 28.2729 10.7098 27.7192 10.9392C27.1655 11.1685 26.6921 11.557 26.3592 12.0553C26.0262 12.5536 25.8485 13.1395 25.8485 13.7388C25.8525 14.5399 26.1735 15.3068 26.7414 15.8718C27.3093 16.4368 28.0777 16.754 28.8788 16.754V16.7692ZM25.8485 19.754H31.9091V21.2692H25.8485V19.754ZM45.2424 21.2692H43.7273V20.1858C42.7502 20.8698 41.5867 21.2373 40.394 21.2388C39.3769 21.2457 38.3745 20.9964 37.4791 20.5141C36.5836 20.0317 35.824 19.3317 35.2702 18.4787C34.7164 17.6257 34.3861 16.647 34.3099 15.6327C34.2336 14.6185 34.4138 13.6014 34.8339 12.6752C35.254 11.7489 35.9004 10.9432 36.7136 10.3325C37.5268 9.72165 38.4807 9.32529 39.4873 9.17999C40.494 9.03461 41.521 9.14499 42.4737 9.50082C43.4265 9.85665 44.2745 10.4465 44.9394 11.2161L43.8258 12.2085C43.32 11.6431 42.6808 11.2132 41.9664 10.9582C41.252 10.703 40.4851 10.6307 39.7356 10.7479C38.9861 10.8651 38.2779 11.1681 37.6754 11.6291C37.073 12.0901 36.5955 12.6945 36.2865 13.3874C35.9775 14.0802 35.8468 14.8393 35.9064 15.5956C35.9659 16.3519 36.2137 17.0812 36.6274 17.7171C37.041 18.353 37.6071 18.8754 38.2743 19.2364C38.9415 19.5975 39.6884 19.7858 40.447 19.7843C41.0765 19.7856 41.699 19.6509 42.2717 19.3894C42.8443 19.1279 43.3538 18.7457 43.7652 18.2692H39.6743V16.754H45.2576L45.2424 21.2692ZM50.8182 9.2237C51.7172 9.2237 52.596 9.49029 53.3435 9.98976C54.091 10.4892 54.6737 11.1991 55.0177 12.0297C55.3617 12.8603 55.4517 13.7742 55.2763 14.6559C55.1009 15.5376 54.668 16.3476 54.0323 16.9832C53.3966 17.619 52.5867 18.0519 51.7049 18.2273C50.8233 18.4026 49.9093 18.3126 49.0787 17.9686C48.2481 17.6245 47.5383 17.042 47.0388 16.2945C46.5393 15.547 46.2727 14.6682 46.2727 13.7692C46.2687 13.1684 46.3839 12.5729 46.6115 12.0169C46.839 11.4609 47.1746 10.9555 47.5986 10.5301C48.0227 10.1045 48.527 9.76733 49.0822 9.53786C49.6374 9.30847 50.2326 9.19135 50.8333 9.19339L50.8182 9.2237ZM50.8182 16.7995C51.4175 16.7995 52.0034 16.6217 52.5018 16.2888C53.0001 15.9557 53.3885 15.4825 53.6178 14.9288C53.8472 14.3751 53.9072 13.7658 53.7902 13.1779C53.6733 12.5901 53.3847 12.0502 52.9609 11.6264C52.5371 11.2026 51.9972 10.914 51.4094 10.7971C50.8215 10.6801 50.2123 10.7401 49.6586 10.9695C49.1049 11.1988 48.6315 11.5873 48.2986 12.0856C47.9656 12.5839 47.7879 13.1698 47.7879 13.7692C47.7999 14.5676 48.1265 15.329 48.6968 15.8879C49.267 16.4468 50.0349 16.7581 50.8333 16.754L50.8182 16.7995ZM47.7879 19.7843H53.8485V21.2995H47.7879V19.7843ZM56.9773 9.19339H58.4924V21.2388H56.9773V9.19339ZM60.5909 9.19339H62.1061C62.1841 9.18514 62.2628 9.18514 62.3409 9.19339C62.9755 9.12453 63.6174 9.19014 64.2249 9.38582C64.8324 9.58158 65.392 9.90302 65.867 10.3293C66.3421 10.7556 66.722 11.2772 66.9821 11.8601C67.2422 12.4429 67.3766 13.0741 67.3766 13.7123C67.3766 14.3506 67.2422 14.9817 66.9821 15.5646C66.722 16.1475 66.3421 16.6691 65.867 17.0954C65.392 17.5217 64.8324 17.8431 64.2249 18.0388C63.6174 18.2345 62.9755 18.3001 62.3409 18.2313H62.1061V21.2616H60.5909V9.19339ZM62.1061 10.7085V16.701H62.3409C62.7689 16.7579 63.204 16.7229 63.6174 16.5979C64.0306 16.4731 64.4124 16.2613 64.7372 15.977C65.0621 15.6926 65.3223 15.342 65.5006 14.9488C65.679 14.5557 65.7712 14.1289 65.7712 13.6972C65.7712 13.2654 65.679 12.8387 65.5006 12.4455C65.3223 12.0523 65.0621 11.7018 64.7372 11.4174C64.4124 11.1329 64.0306 10.9213 63.6174 10.7963C63.204 10.6715 62.7689 10.6364 62.3409 10.6934C62.2584 10.702 62.1771 10.7198 62.0985 10.7464L62.1061 10.7085ZM73.0227 10.0646L71.9015 10.951C71.7081 10.7488 71.461 10.6061 71.1893 10.5396C70.9175 10.4731 70.6324 10.4855 70.3675 10.5754C70.1025 10.6653 69.8688 10.8289 69.6937 11.0471C69.5185 11.2653 69.4093 11.5289 69.3788 11.807V11.9282C69.3788 12.5949 69.8409 13.0419 70.7424 13.1025C74.2121 13.3146 75.803 14.9434 75.803 17.0949V17.2313C75.7134 18.0828 75.3811 18.8907 74.8457 19.5588C74.3102 20.227 73.5941 20.7273 72.7826 21.0002C71.971 21.2731 71.0981 21.3072 70.2677 21.0983C69.4374 20.8895 68.6844 20.4466 68.0985 19.8222L69.2576 18.9282C69.5274 19.2174 69.8568 19.4444 70.2231 19.5935C70.5894 19.7426 70.9837 19.8104 71.3788 19.7919C72.1085 19.8304 72.8248 19.5854 73.3781 19.1082C73.9315 18.6311 74.2792 17.9586 74.3485 17.2313V17.1252C74.3485 15.1025 72.3637 14.7313 70.644 14.5646C69.053 14.4131 67.9091 13.4207 67.9091 11.9888V11.9282C67.9652 11.1828 68.3054 10.4873 68.8594 9.98552C69.4134 9.48362 70.139 9.21362 70.8864 9.23127C71.2824 9.21961 71.6765 9.29105 72.0432 9.44112C72.4099 9.5912 72.741 9.8165 73.0152 10.1025L73.0227 10.0646ZM81.7349 19.701C83.6212 19.701 85.1137 17.6631 85.1137 15.1555V9.09491H86.6288V15.1555C86.6288 18.4888 84.447 21.1782 81.7652 21.1782C79.0833 21.1782 76.9015 18.4888 76.9015 15.1555V9.09491H78.4167V15.1555C78.3561 17.701 79.8485 19.7388 81.7273 19.7388L81.7349 19.701ZM98.2576 21.2161H96.7424V13.7161L93.25 18.2616L89.7576 13.7161V21.2388H88.2424V9.19339L93.2424 15.7767L98.2424 9.19339L98.2576 21.2161Z" fill="#394149"/>
<path d="M10.8258 7.38275C10.8258 6.28973 10.3916 5.24148 9.61874 4.46861C8.84586 3.69573 7.79759 3.26154 6.70457 3.26154C5.61156 3.26154 4.56331 3.69573 3.79043 4.46861C3.01756 5.24148 2.58336 6.28973 2.58336 7.38275V19.8449L5.9773 22.2767V28.2009H7.43184V22.2767L10.8258 19.8449V7.38275ZM9.37124 14.3524L7.43184 16.2918V14.4737L9.37124 12.5343V14.3524ZM4.06821 12.5343L6.0076 14.4737V16.2918L4.06821 14.3524V12.5343ZM9.37124 10.4737L6.70457 13.1403L4.0379 10.4131V8.59487L6.70457 11.2615L9.37124 8.59487V10.4737ZM6.70457 4.71608C7.29105 4.71867 7.8605 4.91345 8.32571 5.27057C8.79093 5.62769 9.12624 6.12747 9.28033 6.69335L6.70457 9.26154L4.12881 6.69335C4.27725 6.12184 4.61015 5.61529 5.07588 5.2523C5.54161 4.88931 6.11411 4.69016 6.70457 4.68577V4.71608ZM4.0379 19.11V16.3827L5.9773 18.3221V20.4888L4.0379 19.11ZM7.43184 20.4964V18.3221L9.37124 16.3827V19.1024L7.43184 20.4964Z" fill="#394149"/>
</svg>
