<svg width="91" height="30" viewBox="0 0 91 30" fill="none" xmlns="http://www.w3.org/2000/svg">
<g clip-path="url(#clip0_107_117)">
<path d="M64.4799 27.1181C65.0264 27.1181 65.3497 26.7041 65.3497 26.0568C65.3497 25.3858 65.0026 24.9955 64.4914 24.9955C64.1991 24.9955 63.9961 25.1251 63.8441 25.3311H63.8369V24.2705H63.5201V27.0591H63.8369V26.7941H63.8441C64.0083 27.0202 64.207 27.1181 64.4799 27.1181ZM64.4569 26.8524C64.0277 26.8524 63.8168 26.5133 63.8168 26.0604C63.8168 25.6241 64.0198 25.2648 64.4605 25.2648C64.8428 25.2648 65.0264 25.6083 65.0264 26.0604C65.0264 26.5169 64.8428 26.8524 64.4569 26.8524V26.8524ZM65.8846 27.7265C66.1301 27.7265 66.2864 27.6401 66.4498 27.2225L67.3124 25.0423H66.9769L66.5161 26.2987C66.4541 26.4665 66.3836 26.6926 66.3836 26.6926H66.3764C66.3764 26.6926 66.3015 26.4665 66.2396 26.2987L65.7637 25.0423H65.4202L66.2079 27.0007L66.1301 27.1995C66.0524 27.3946 65.9624 27.4457 65.8299 27.4457C65.7559 27.4495 65.6821 27.4346 65.6153 27.4025H65.5995V27.6833C65.6859 27.7186 65.7637 27.7265 65.8846 27.7265V27.7265ZM68.1209 27.0591H68.6516V24.2705H68.1209V27.0591ZM69.949 27.1181C70.5689 27.1181 70.9945 26.6573 70.9945 26.0604C70.9945 25.4635 70.5697 25.0035 69.949 25.0035C69.3291 25.0035 68.9036 25.4643 68.9036 26.0604C68.9036 26.658 69.3284 27.1181 69.949 27.1181ZM69.949 26.712C69.6214 26.712 69.4421 26.4507 69.4421 26.0604C69.4421 25.6709 69.6214 25.4052 69.949 25.4052C70.273 25.4052 70.4559 25.6709 70.4559 26.0604C70.4559 26.4507 70.273 26.712 69.949 26.712ZM72.1227 27.7416C72.4193 27.7416 72.6764 27.6718 72.8441 27.5155C72.9925 27.3787 73.0825 27.1879 73.0825 26.9071V25.0582H72.5713V25.2691H72.5633C72.4424 25.1014 72.2595 25.0035 72.0089 25.0035C71.5028 25.0035 71.1435 25.3858 71.1435 25.9827C71.1435 26.5875 71.5805 26.9381 72.0255 26.9381C72.2789 26.9381 72.4309 26.8373 72.5475 26.7041H72.5597V26.923C72.5597 27.1959 72.4157 27.3406 72.1148 27.3406C71.8693 27.3406 71.7562 27.2427 71.713 27.1174H71.1867C71.2407 27.5076 71.5762 27.7416 72.1227 27.7416V27.7416ZM72.1155 26.5133C71.8419 26.5133 71.6619 26.3146 71.6619 25.9747C71.6619 25.6392 71.8419 25.429 72.1112 25.429C72.4309 25.429 72.5871 25.6781 72.5871 25.9711C72.5871 26.2678 72.4503 26.5133 72.1148 26.5133H72.1155ZM74.372 27.1181C74.9919 27.1181 75.4174 26.6573 75.4174 26.0604C75.4174 25.4635 74.9919 25.0035 74.372 25.0035C73.7513 25.0035 73.3265 25.4643 73.3265 26.0604C73.3265 26.658 73.7513 27.1181 74.372 27.1181ZM74.372 26.712C74.0444 26.712 73.8644 26.4507 73.8644 26.0604C73.8644 25.6709 74.0444 25.4052 74.372 25.4052C74.6953 25.4052 74.8789 25.6709 74.8789 26.0604C74.8789 26.4507 74.6953 26.712 74.372 26.712ZM75.6637 27.0591H76.1943V25.0582H75.6637V27.0598V27.0591ZM75.6637 24.7464H76.1943V24.2705H75.6637V24.7457V24.7464ZM76.5363 27.7143H77.0669V26.8337H77.0741C77.1879 27.0058 77.3708 27.1188 77.6516 27.1188C78.1664 27.1188 78.5177 26.7084 78.5177 26.0611C78.5177 25.4369 78.1786 25.0042 77.648 25.0042C77.5323 25.0023 77.4179 25.0291 77.3151 25.0823C77.2124 25.1354 77.1244 25.2133 77.059 25.3087H77.0475V25.0589H76.5363V27.7157V27.7143ZM77.5385 26.6775C77.2225 26.6775 77.0547 26.4391 77.0547 26.0763C77.0547 25.7177 77.1879 25.4326 77.5191 25.4326C77.8467 25.4326 77.9792 25.6975 77.9792 26.0763C77.9792 26.455 77.8078 26.6767 77.5385 26.6767V26.6775ZM79.5761 27.1181C80.0751 27.1181 80.4185 26.8762 80.4185 26.4744C80.4185 26.0064 80.0477 25.9128 79.7122 25.8423C79.4278 25.7839 79.1629 25.7681 79.1629 25.5967C79.1629 25.4527 79.2989 25.3735 79.5056 25.3735C79.7324 25.3735 79.8685 25.4527 79.8922 25.6666H80.3717C80.3329 25.2648 80.0405 25.0042 79.5135 25.0042C79.057 25.0042 78.6985 25.2101 78.6985 25.6435C78.6985 26.0799 79.0491 26.1778 79.4084 26.2483C79.6813 26.3023 79.9347 26.3218 79.9347 26.5133C79.9347 26.6537 79.8022 26.7437 79.5682 26.7437C79.3306 26.7437 79.1665 26.6422 79.1312 26.4118H78.6401C78.6711 26.8366 78.9951 27.1174 79.5761 27.1174V27.1181ZM82.4331 27.0591V25.0582H81.9025V26.2131C81.9025 26.478 81.7498 26.6652 81.5007 26.6652C81.2746 26.6652 81.1688 26.5363 81.1688 26.3023V25.0582H80.6425V26.3923C80.6425 26.8294 80.8923 27.1138 81.3365 27.1138C81.6173 27.1138 81.7736 27.0087 81.9104 26.8258H81.9219V27.0591H82.4331V27.0591ZM82.7758 27.0591H83.3065V25.8977C83.3065 25.632 83.4505 25.4607 83.665 25.4607C83.8601 25.4607 83.9732 25.578 83.9732 25.8041V27.0598H84.5038V25.8977C84.5038 25.632 84.6406 25.4607 84.8631 25.4607C85.0582 25.4607 85.1713 25.578 85.1713 25.8041V27.0598H85.7019V25.7141C85.7019 25.2771 85.4636 25.0042 85.0424 25.0042C84.7889 25.0042 84.578 25.1367 84.4419 25.3555H84.434C84.3859 25.2493 84.3079 25.1594 84.2093 25.0969C84.1108 25.0345 83.9962 25.0023 83.8796 25.0042C83.7626 25.0012 83.647 25.0298 83.5448 25.0868C83.4426 25.1437 83.3575 25.2271 83.2985 25.3282H83.287V25.0589H82.7758V27.0605V27.0591Z" fill="#E5708C"/>
<path d="M85.8064 1.86347C85.8064 1.01171 86.4969 0.320506 87.3487 0.320506H88.3776C88.7868 0.320506 89.1792 0.483068 89.4686 0.772429C89.7579 1.06179 89.9205 1.45425 89.9205 1.86347C89.9205 2.27268 89.7579 2.66514 89.4686 2.9545C89.1792 3.24386 88.7868 3.40643 88.3776 3.40643H87.3487C87.1461 3.40643 86.9455 3.36651 86.7583 3.28896C86.5712 3.21141 86.4011 3.09775 86.2579 2.95446C86.1147 2.81117 86.0011 2.64107 85.9236 2.45388C85.8462 2.26668 85.8063 2.06606 85.8064 1.86347V1.86347ZM42.6129 10.605C42.6129 16.2843 38.0092 20.8887 32.3292 20.8887C26.6498 20.8887 22.0454 16.2843 22.0454 10.605C22.0454 4.92419 26.6498 0.321226 32.3292 0.321226C38.0092 0.321226 42.6129 4.92419 42.6129 10.605ZM20.0395 10.5539C20.6083 10.5539 21.0734 11.0147 21.0165 11.5806C20.8221 13.5173 20.0821 15.359 18.8825 16.8918C17.6829 18.4245 16.0729 19.5854 14.2397 20.2394C12.4064 20.8934 10.4252 21.0138 8.52632 20.5864C6.62741 20.1591 4.88876 19.2016 3.51245 17.8253C2.13614 16.449 1.17867 14.7103 0.751328 12.8114C0.323986 10.9125 0.444317 8.93132 1.09834 7.09808C1.75236 5.26485 2.91321 3.65487 4.44597 2.45524C5.97874 1.25561 7.82048 0.515608 9.75716 0.321226C10.3224 0.263626 10.7839 0.730186 10.7839 1.29755V9.52499C10.7839 10.0938 11.2447 10.5539 11.8128 10.5539H20.0395V10.5539ZM57.0108 22.9458C57.829 22.9458 58.6137 23.2708 59.1923 23.8494C59.7709 24.428 60.096 25.2127 60.096 26.031C60.096 26.8492 59.7709 27.634 59.1923 28.2126C58.6137 28.7911 57.829 29.1162 57.0108 29.1162H51.8692C51.051 29.1162 50.2663 28.7911 49.6877 28.2126C49.1091 27.634 48.784 26.8492 48.784 26.031C48.784 25.2127 49.1091 24.428 49.6877 23.8494C50.2663 23.2708 51.051 22.9458 51.8692 22.9458H57.0108ZM53.9256 20.8887C59.6056 20.8887 64.21 16.2843 64.21 10.605C64.2125 8.86039 63.7691 7.1441 62.9219 5.61899L64.6211 3.91979C64.8169 3.72397 64.9721 3.49152 65.078 3.23571C65.1839 2.9799 65.2384 2.70574 65.2383 2.42888C65.2382 2.15202 65.1836 1.87788 65.0776 1.62212C64.9716 1.36636 64.8162 1.13399 64.6204 0.938266C64.4246 0.742544 64.1922 0.587307 63.9364 0.481419C63.6805 0.375532 63.4064 0.321066 63.1295 0.321133C62.8527 0.3212 62.5785 0.375798 62.3228 0.481809C62.067 0.587821 61.8346 0.743169 61.6389 0.938986L60.1557 2.42219C58.3663 1.05556 56.1764 0.316883 53.9248 0.320506C48.2462 0.321226 43.6425 4.92419 43.6425 10.605C43.6425 16.2843 48.2469 20.8887 53.9263 20.8887H53.9256ZM85.8064 10.605C85.8064 16.2843 81.202 20.8887 75.5219 20.8887C69.8426 20.8887 65.2382 16.2843 65.2382 10.605C65.2382 4.92419 69.8426 0.321226 75.5219 0.321226C81.202 0.321226 85.8064 4.92491 85.8064 10.605Z" fill="url(#paint0_linear_107_117)"/>
</g>
<defs>
<linearGradient id="paint0_linear_107_117" x1="0.500115" y1="11.8362" x2="86.1801" y2="11.8362" gradientUnits="userSpaceOnUse">
<stop stop-color="#64C2DB"/>
<stop offset="0.307" stop-color="#7476ED"/>
<stop offset="0.604" stop-color="#C994DF"/>
<stop offset="1" stop-color="#E56F8C"/>
</linearGradient>
<clipPath id="clip0_107_117">
<rect width="90" height="28.8" fill="white" transform="translate(0.5 0.316101)"/>
</clipPath>
</defs>
</svg>
