<svg width="112" height="28" viewBox="0 0 112 28" fill="none" xmlns="http://www.w3.org/2000/svg">
<g clip-path="url(#clip0_107_80)">
<path d="M34.3616 19.3408H42.1656V16.9902H37.1353V8.13635H34.3616V19.3408Z" fill="#340E0E"/>
<path d="M46.7891 17.7738C45.6765 17.7738 45.0967 16.8022 45.0967 15.3449C45.0967 13.8875 45.6765 12.9003 46.7891 12.9003C47.9017 12.9003 48.4972 13.8875 48.4972 15.3449C48.4972 16.8022 47.9017 17.7738 46.7891 17.7738ZM46.8048 19.5916C49.3904 19.5916 51.0828 17.7581 51.0828 15.3449C51.0828 12.9316 49.3904 11.0981 46.8048 11.0981C44.2348 11.0981 42.511 12.9316 42.511 15.3449C42.511 17.7581 44.2348 19.5916 46.8048 19.5916Z" fill="#340E0E"/>
<path d="M55.5584 22.1146C56.7494 22.1146 57.7993 21.8482 58.5045 21.2213C59.147 20.6415 59.5701 19.764 59.5701 18.5573V11.3175H57.1255V12.1794H57.0941C56.624 11.5056 55.9032 11.0825 54.8376 11.0825C52.8474 11.0825 51.4684 12.7435 51.4684 15.0941C51.4684 17.5544 53.1452 18.9021 54.9473 18.9021C55.9189 18.9021 56.53 18.5103 57.0001 17.9775H57.0628V18.7767C57.0628 19.7483 56.6084 20.3124 55.5271 20.3124C54.6809 20.3124 54.2578 19.952 54.1167 19.5289H51.6408C51.8915 21.2057 53.3489 22.1146 55.5584 22.1146ZM55.5428 17.0059C54.5869 17.0059 53.96 16.2224 53.96 15.0158C53.96 13.7935 54.5869 13.0099 55.5428 13.0099C56.6084 13.0099 57.1725 13.9188 57.1725 15.0001C57.1725 16.1284 56.6554 17.0059 55.5428 17.0059Z" fill="#340E0E"/>
<path d="M64.5966 17.7738C63.484 17.7738 62.9042 16.8022 62.9042 15.3449C62.9042 13.8875 63.484 12.9003 64.5966 12.9003C65.7093 12.9003 66.3047 13.8875 66.3047 15.3449C66.3047 16.8022 65.7093 17.7738 64.5966 17.7738ZM64.6123 19.5916C67.198 19.5916 68.8904 17.7581 68.8904 15.3449C68.8904 12.9316 67.198 11.0981 64.6123 11.0981C62.0423 11.0981 60.3186 12.9316 60.3186 15.3449C60.3186 17.7581 62.0423 19.5916 64.6123 19.5916Z" fill="#340E0E"/>
<path d="M69.6361 19.3408H72.1904V11.3175H69.6361V19.3408ZM69.6361 10.2049H72.1904V8.13635H69.6361V10.2049Z" fill="#340E0E"/>
<path d="M73.2991 21.9892H75.8534V18.5103H75.8847C76.3862 19.1842 77.1227 19.5916 78.1569 19.5916C80.2568 19.5916 81.6515 17.9305 81.6515 15.3292C81.6515 12.9159 80.3508 11.0825 78.2196 11.0825C77.1227 11.0825 76.3391 11.5682 75.7907 12.2891H75.7437V11.3175H73.2991V21.9892ZM77.4988 17.6171C76.4018 17.6171 75.775 16.7239 75.775 15.4232C75.775 14.1226 76.3391 13.1353 77.4518 13.1353C78.5487 13.1353 79.0658 14.0442 79.0658 15.4232C79.0658 16.7866 78.4704 17.6171 77.4988 17.6171Z" fill="#340E0E"/>
<path d="M85.8101 19.5916C87.9099 19.5916 89.4613 18.6827 89.4613 16.9276C89.4613 14.8747 87.8002 14.5143 86.3899 14.2793C85.3713 14.0912 84.4624 14.0129 84.4624 13.4487C84.4624 12.9473 84.9482 12.7122 85.575 12.7122C86.2802 12.7122 86.766 12.9316 86.86 13.6524H89.2106C89.0852 12.0697 87.8629 11.0825 85.5907 11.0825C83.6945 11.0825 82.1275 11.96 82.1275 13.6524C82.1275 15.5329 83.6162 15.909 85.0109 16.1441C86.0765 16.3321 87.048 16.4105 87.048 17.1313C87.048 17.6484 86.5622 17.9305 85.7944 17.9305C84.9482 17.9305 84.4154 17.5387 84.3214 16.7395H81.9081C81.9864 18.5103 83.4595 19.5916 85.8101 19.5916Z" fill="#340E0E"/>
<path d="M92.931 19.5759C94.0436 19.5759 94.7488 19.1371 95.3286 18.3536H95.3756V19.3408H97.8202V11.3175H95.2659V15.7993C95.2659 16.7552 94.7331 17.4134 93.8556 17.4134C93.0407 17.4134 92.6489 16.9276 92.6489 16.05V11.3175H90.1103V16.5828C90.1103 18.3693 91.0819 19.5759 92.931 19.5759Z" fill="#340E0E"/>
<path d="M98.9309 19.3409H101.485V14.8434C101.485 13.8875 101.955 13.2137 102.755 13.2137C103.522 13.2137 103.883 13.7151 103.883 14.577V19.3409H106.437V14.8434C106.437 13.8875 106.892 13.2137 107.706 13.2137C108.474 13.2137 108.835 13.7151 108.835 14.577V19.3409H111.389V14.1226C111.389 12.3204 110.48 11.0825 108.662 11.0825C107.628 11.0825 106.766 11.5212 106.139 12.4928H106.108C105.701 11.6309 104.901 11.0825 103.851 11.0825C102.692 11.0825 101.924 11.6309 101.423 12.4615H101.376V11.3175H98.9309V19.3409Z" fill="#340E0E"/>
<path fill-rule="evenodd" clip-rule="evenodd" d="M14.0055 27.1762C21.2177 27.1762 27.0643 21.3295 27.0643 14.1173C27.0643 6.90517 21.2177 1.05853 14.0055 1.05853C6.79331 1.05853 0.946686 6.90517 0.946686 14.1173C0.946686 21.3295 6.79331 27.1762 14.0055 27.1762ZM18.0794 7.14188C18.2777 6.43749 17.5942 6.02097 16.9699 6.46573L8.25513 12.6741C7.5781 13.1564 7.68459 14.1173 8.4151 14.1173H10.7099V14.0996H15.1824L11.5382 15.3854L9.93163 21.0928C9.73333 21.7972 10.4168 22.2137 11.0412 21.769L19.7559 15.5607C20.4329 15.0783 20.3264 14.1173 19.5959 14.1173H16.1159L18.0794 7.14188Z" fill="#F15757"/>
</g>
<defs>
<clipPath id="clip0_107_80">
<rect width="111" height="26.7706" fill="white" transform="translate(0.5 0.968384)"/>
</clipPath>
</defs>
</svg>
