<svg width="41" height="28" viewBox="0 0 41 28" fill="none" xmlns="http://www.w3.org/2000/svg">
<path d="M26.1809 14.0797C26.1809 20.8887 20.6612 26.4085 13.8522 26.4085C7.04324 26.4085 1.52344 20.8887 1.52344 14.0797C1.52344 7.27076 7.04324 1.75098 13.8522 1.75098C20.6612 1.75098 26.1809 7.27076 26.1809 14.0797Z" fill="#68DBFF"/>
<path d="M39.4767 14.0797C39.4767 20.8887 34.011 26.4085 27.2688 26.4085C20.5266 26.4085 15.0609 20.8887 15.0609 14.0797C15.0609 7.27076 20.5266 1.75098 27.2688 1.75098C34.011 1.75098 39.4767 7.27076 39.4767 14.0797Z" fill="#FF7917"/>
<path d="M20.5935 24.4039C23.9581 22.2024 26.1809 18.4007 26.1809 14.0798C26.1809 9.75889 23.9581 5.9571 20.5935 3.75568C17.2619 5.9571 15.0609 9.75889 15.0609 14.0798C15.0609 18.4007 17.2619 22.2024 20.5935 24.4039Z" fill="#5D2C02"/>
</svg>
