<svg width="51" height="51" viewBox="0 0 51 51" fill="none" xmlns="http://www.w3.org/2000/svg">
<path d="M27.25 20C27.25 15.875 23.875 12.5 19.75 12.5C15.625 12.5 12.25 15.875 12.25 20C12.25 24.125 15.625 27.5 19.75 27.5C23.875 27.5 27.25 24.125 27.25 20ZM19.75 22.5C18.375 22.5 17.25 21.375 17.25 20C17.25 18.625 18.375 17.5 19.75 17.5C21.125 17.5 22.25 18.625 22.25 20C22.25 21.375 21.125 22.5 19.75 22.5ZM36 27.5C38.775 27.5 41 25.275 41 22.5C41 19.725 38.775 17.5 36 17.5C33.225 17.5 30.975 19.725 31 22.5C31 25.275 33.225 27.5 36 27.5ZM25.975 0.0250244C12.175 0.0250244 0.975006 11.225 0.975006 25.025C0.975006 38.825 12.175 50.025 25.975 50.025C39.775 50.025 50.975 38.825 50.975 25.025C50.975 11.225 39.775 0.0250244 25.975 0.0250244ZM10.6 37.8C12.3 36.45 16.275 35.025 19.75 35.025C19.925 35.025 20.125 35.05 20.325 35.05C20.925 33.45 22 31.825 23.575 30.4C22.3137 30.1584 21.034 30.0246 19.75 30C16.5 30 11.275 31.125 7.92501 33.575C6.67501 30.975 5.97501 28.075 5.97501 25C5.97501 13.975 14.95 5.00002 25.975 5.00002C37 5.00002 45.975 13.975 45.975 25C45.975 28 45.3 30.85 44.1 33.425C41.6 31.95 38.2 31.25 36 31.25C32.2 31.25 24.75 33.275 24.75 38V44.95C22.0266 44.7952 19.3644 44.0803 16.9297 42.85C14.495 41.6198 12.3402 39.9007 10.6 37.8Z" fill="#8ECAE6"/>
</svg>
